<svg width="200" height="42" viewBox="0 0 200 42" fill="none" xmlns="http://www.w3.org/2000/svg">
<rect x="0.5" y="0.5" width="199" height="41" stroke="#D58C51"/>
<path d="M84.462 20.946C85.442 20.582 86.058 19.84 86.058 18.706C86.058 17.068 84.784 16.2 82.726 16.2H78.652V26H82.992C85.358 26 86.548 25.034 86.548 23.354C86.548 22.052 85.834 21.226 84.462 20.946ZM79.674 17.026H82.67C84.168 17.026 85.022 17.656 85.022 18.832C85.022 20.022 84.168 20.638 82.67 20.638H79.674V17.026ZM82.992 25.174H79.674V21.436H82.992C84.644 21.436 85.526 22.01 85.526 23.284C85.526 24.572 84.644 25.174 82.992 25.174ZM91.9943 21.24L89.8943 21.212V18.636H88.9003V26L91.8123 26.014C93.7583 26.042 94.8363 25.16 94.8363 23.592C94.8363 22.08 93.8423 21.254 91.9943 21.24ZM96.0683 26H97.0623V18.636H96.0683V26ZM91.7563 25.258L89.8943 25.23V21.954L91.7563 21.982C93.1283 21.996 93.8283 22.5 93.8283 23.592C93.8283 24.698 93.1143 25.272 91.7563 25.258ZM103.239 17.586C104.485 17.586 105.311 16.942 105.339 15.766H104.625C104.597 16.508 104.037 16.97 103.239 16.97C102.441 16.97 101.881 16.508 101.867 15.766H101.153C101.181 16.942 101.993 17.586 103.239 17.586ZM99.8925 26H100.789L105.689 20.148V26H106.683V18.636H105.801L100.887 24.488V18.636H99.8925V26ZM114.711 18.636H108.145V19.518H110.931V26H111.925V19.518H114.711V18.636ZM116.148 26H117.044L121.944 20.148V26H122.938V18.636H122.056L117.142 24.488V18.636H116.148V26Z" fill="#D58C51"/>
</svg>
